<mxfile host="app.diagrams.net" modified="2024-06-14T13:34:45.631Z" agent="Mozilla/5.0 (Windows NT 10.0; Win64; x64; rv:126.0) Gecko/20100101 Firefox/126.0" version="24.5.4" etag="O0EjBAw2MCuHcx8O3TrE" type="github">
  <diagram name="Page-1" id="dZBZ8yBVDsQcsfg-VRlM">
    <mxGraphModel>
      <root>
        <mxCell id="0" />
        <mxCell id="1" parent="0" />
      </root>
    </mxGraphModel>
  </diagram>
</mxfile>
